<svg xmlns="http://www.w3.org/2000/svg" version="1.1" xmlns:xlink="http://www.w3.org/1999/xlink" xmlns:svgjs="http://svgjs.dev/svgjs" width="1000" height="953" viewBox="0 0 1000 953"><g transform="matrix(1,0,0,1,-0.3511969111965527,0.3865424407560454)"><svg viewBox="0 0 259 247" data-background-color="#ffbe79" preserveAspectRatio="xMidYMid meet" height="953" width="1000" xmlns="http://www.w3.org/2000/svg" xmlns:xlink="http://www.w3.org/1999/xlink"><g id="tight-bounds" transform="matrix(1,0,0,1,0.09095999999991022,-0.09997365579206985)"><svg viewBox="0 0 258.8179845378151 247.2" height="247.2" width="258.8179845378151"><g><svg viewBox="0 0 258.8179845378151 247.2" height="247.2" width="258.8179845378151"><g><svg viewBox="0 0 258.8179845378151 247.2" height="247.2" width="258.8179845378151"><g id="textblocktransform"><svg viewBox="0 0 258.8179845378151 247.2" height="247.2" width="258.8179845378151" id="textblock"><g><svg viewBox="0 0 258.8179845378151 247.2" height="247.2" width="258.8179845378151"><path d="M258.212 53.02C256.995 27.36 253.528 20.227 253.528 20.227 242.881-6.202 229.594-0.506 217.657 3.292 196.583 3.446 175.594 9.091 154.569 12.119 110.437 12.581 65.928 4.986 22.015 23.717 17.89 29.464-4.279 24.846 0.734 56.304 2.048 69.39 6.842 83.913 6.696 95.922 7.353 98.026 8.265 93.202 8.655 96.23 10.018 104.39 12.244 100.541 14.069 105.365 11.526 118.246 13.351 128.971 15.091 140.21 12.025 143.135 8.095 141.749 6.331 151.449 6.148 158.479 5.163 157.145 4.08 156.837 3.289 156.632 1.695 157.402 1.963 159.608 2.875 167.152-1.043 171.514 1.415 178.904-0.276 186.91 2.583 193.838 2.194 202.511 2.145 204.255 2.413 205.744 2.839 206.154 4.725 208.361 1.975 212.672 2.267 217.342 21.613 249.262 42.602 227.195 62.423 241.872 67.57 231.608 63.701 245.516 65.757 243.36 67.363 240.846 68.531 251.263 70.344 245.362 70.624 243.668 70.198 239.665 71.196 240.435 71.719 240.846 72.182 240.743 72.255 238.382 72.364 234.841 71.403 237.048 71.148 235.201 73.91 225.861 73.228 248.081 75.82 247.158 75.698 244.438 74.944 240.538 76.489 241.051 78.022 237.151 78.071 233.918 79.434 242.693 79.482 244.592 79.726 245.926 80.115 246.85 84.374 237.305 88.608 250.237 93.074 245.926 95.811 241.205 98.439 248.492 101.214 246.696 102.187 245.259 103.173 242.693 104.11 247.004 115.584 247.928 127.812 244.079 138.69 247.158 167.758 241.41 198.822 249.518 229.472 241.923 236.7 238.998 244.207 234.841 251.252 231.506 251.252 231.506 256.959 222.371 256.959 181.316S258.176 145.393 258.358 112.703C258.541 80.013 259.392 78.679 258.176 53.02Z" opacity="1" fill="#ff0b0b" data-fill-palette-color="tertiary"></path><g transform="matrix(1,0,0,1,55.76832,26.230666666666668)"><svg width="147.2813445378151" viewBox="2.200000047683716 -35.5 27 35.70000076293945" height="194.73866666666666" data-palette-color="#ffbe79"><path d="M14.5-13.85L14.5-13.85Q13.15-13.85 12.45-13.9L12.45-13.9Q10.3-4.5 10.05-0.85L10.05-0.85Q7.9 0.2 3.5 0.2L3.5 0.2Q2.55 0.2 2.2 0.15L2.2 0.15Q2.55-2.8 5.2-14.68 7.85-26.55 7.85-29.65L7.85-29.65Q7.85-30.25 7.18-31.23 6.5-32.2 5.8-32.85L5.8-32.85 5.15-33.5 5.3-34.25Q13.7-35.5 18.9-35.5L18.9-35.5Q29.2-35.5 29.2-27.1L29.2-27.1Q29.2-21.5 25.5-17.68 21.8-13.85 14.5-13.85ZM13.2-17.2L13.7-17.2Q17.55-17.2 19.53-20.1 21.5-23 21.5-27.85L21.5-27.85Q21.5-29.85 20.75-31.13 20-32.4 18.55-32.4L18.55-32.4Q17.6-32.4 16.2-32.05L16.2-32.05Q15.4-26.8 13.2-17.2L13.2-17.2Z" opacity="1" transform="matrix(1,0,0,1,0,0)" fill="#ffbe79" class="wordmark-text-0" data-fill-palette-color="quaternary" id="text-0"></path></svg></g></svg></g></svg></g></svg></g><g></g></svg></g><defs></defs></svg><rect width="258.8179845378151" height="247.2" fill="none" stroke="none" visibility="hidden"></rect></g></svg></g></svg>